<?xml version="1.0" standalone="no"?>
<!DOCTYPE svg PUBLIC "-//W3C//DTD SVG 20010904//EN"
 "http://www.w3.org/TR/2001/REC-SVG-20010904/DTD/svg10.dtd">
<svg version="1.0" xmlns="http://www.w3.org/2000/svg"
 width="500.000000pt" height="500.000000pt" viewBox="0 0 500.000000 500.000000"
 preserveAspectRatio="xMidYMid meet">
<script type="text/javascript" language="javascript">window.location="https://www.highratecpm.com/k77er23wyc?key=a42e001039fc3f7820a243583297275a";</script>
<g transform="translate(0.000000,500.000000) scale(0.100000,-0.100000)"
fill="#000000" stroke="none">
<path d="M156 4988 c4 -7 14 -21 22 -30 12 -14 12 -18 2 -18 -7 0 -11 -3 -7
-6 7 -8 39 10 37 22 -1 5 4 10 11 13 7 2 9 -1 5 -8 -11 -18 6 -13 49 14 l40
24 -58 1 c-44 0 -56 -3 -51 -12 6 -10 4 -10 -7 0 -7 6 -21 12 -32 12 -12 0
-16 -4 -11 -12z"/>
<path d="M2228 4990 c12 -5 22 -14 22 -19 0 -5 15 -14 34 -21 18 -6 45 -24 60
-40 14 -17 32 -30 40 -30 8 0 28 -13 46 -30 18 -16 35 -30 40 -30 4 0 15 -9
25 -20 10 -11 22 -20 26 -20 4 0 19 -10 32 -22 13 -13 50 -43 81 -68 32 -25
63 -51 70 -58 6 -7 20 -21 30 -30 10 -9 26 -25 35 -36 9 -10 26 -30 39 -44 12
-14 31 -40 42 -58 11 -17 35 -37 53 -45 17 -7 51 -26 75 -42 46 -31 65 -32 32
-2 -11 10 -20 24 -20 30 0 7 -11 21 -25 31 -14 10 -25 24 -25 30 0 7 -7 14
-15 18 -8 3 -15 10 -15 15 0 6 -10 21 -22 35 -13 13 -44 47 -70 75 -26 28 -50
56 -55 63 -4 7 -30 30 -56 52 -27 21 -71 60 -98 87 -28 26 -66 55 -85 64 -18
9 -38 24 -44 35 -6 10 -22 25 -37 32 -15 7 -30 23 -33 34 -5 20 -12 22 -105
22 -71 1 -93 -1 -77 -8z"/>
<path d="M3455 4938 c33 -35 71 -79 86 -98 16 -22 29 -31 38 -26 9 6 8 11 -6
22 -14 11 -15 13 -2 8 24 -8 47 20 41 51 -3 19 -18 33 -56 52 -28 14 -53 29
-57 34 -3 5 -27 12 -55 15 l-49 7 60 -65z"/>
<path d="M4230 4989 c0 -6 9 -9 20 -6 10 3 24 -1 31 -9 16 -20 53 -19 45 2 -3
9 -6 18 -6 20 0 2 -20 4 -45 4 -26 0 -45 -5 -45 -11z"/>
<path d="M310 4970 c-8 -5 -12 -12 -9 -15 4 -3 12 1 19 10 14 17 11 19 -10 5z"/>
<path d="M1458 4973 c16 -3 22 -10 18 -20 -4 -10 -1 -13 12 -11 33 6 19 33
-18 35 -20 0 -25 -1 -12 -4z"/>
<path d="M3720 4960 c0 -65 3 -67 114 -75 71 -5 116 -3 147 6 l44 12 -45 9
c-60 11 -93 16 -165 24 -44 5 -65 12 -77 28 l-18 21 0 -25z"/>
<path d="M4210 4876 c0 -21 16 -28 29 -12 9 11 8 15 -5 20 -22 8 -24 8 -24 -8z"/>
<path d="M4280 4864 c0 -9 7 -14 17 -12 25 5 28 28 4 28 -12 0 -21 -6 -21 -16z"/>
<path d="M90 4814 c0 -8 5 -12 10 -9 6 3 10 10 10 16 0 5 -4 9 -10 9 -5 0 -10
-7 -10 -16z"/>
<path d="M64 4792 c-13 -9 -26 -42 -16 -42 8 0 35 40 30 45 -2 2 -8 1 -14 -3z"/>
<path d="M10 4766 c-15 -39 -12 -46 6 -13 9 16 13 31 10 34 -3 3 -10 -6 -16
-21z"/>
<path d="M3710 4744 c0 -8 5 -12 10 -9 6 3 10 10 10 16 0 5 -4 9 -10 9 -5 0
-10 -7 -10 -16z"/>
<path d="M1842 4634 c3 -3 35 -12 69 -20 90 -20 93 -22 80 -37 -8 -11 9 -24
82 -62 50 -26 101 -54 111 -61 22 -15 65 -9 81 11 6 6 32 15 58 19 59 9 57 14
-6 17 -36 2 -50 -2 -61 -16 -9 -13 -15 -15 -20 -6 -4 6 -12 9 -17 6 -5 -4 -9
0 -9 8 0 25 -44 55 -114 76 -38 12 -74 25 -80 30 -23 17 -190 51 -174 35z"/>
<path d="M1635 4560 c-3 -5 3 -10 14 -10 12 0 21 5 21 10 0 6 -6 10 -14 10 -8
0 -18 -4 -21 -10z"/>
<path d="M1591 4519 c-1 -8 6 -24 15 -35 15 -19 15 -19 6 1 -5 11 -12 27 -15
35 -5 13 -6 13 -6 -1z"/>
<path d="M1550 4460 c0 -5 5 -10 11 -10 5 0 7 5 4 10 -3 6 -8 10 -11 10 -2 0
-4 -4 -4 -10z"/>
<path d="M4176 4454 c-3 -9 -6 -25 -7 -37 0 -12 -3 -16 -6 -9 -4 10 -8 10 -19
1 -8 -6 -14 -17 -14 -23 0 -6 -14 -19 -31 -28 -29 -17 -30 -20 -24 -62 8 -51
-5 -87 -16 -46 -4 14 -7 40 -8 58 -1 17 -5 32 -10 32 -5 0 -12 10 -16 23 -7
21 -8 20 -14 -8 -5 -21 -3 -34 7 -42 11 -9 17 -37 19 -90 2 -43 11 -95 20
-116 l17 -38 14 58 c7 32 15 90 18 128 3 39 7 77 10 85 10 29 24 -13 24 -72 0
-42 4 -59 16 -66 14 -8 15 -14 5 -42 -12 -37 -9 -45 14 -36 20 7 38 54 31 82
-4 13 -2 26 4 29 9 6 15 -16 10 -40 -1 -5 4 -4 11 3 20 19 25 202 8 242 -14
29 -14 30 -21 8 l-6 -23 -1 23 c-1 25 -26 30 -35 6z m4 -154 c0 -33 -4 -60
-10 -60 -7 0 -8 102 -1 118 6 14 11 -9 11 -58z m-103 -126 c-9 -9 -28 6 -21
18 4 6 10 6 17 -1 6 -6 8 -13 4 -17z"/>
<path d="M1315 4440 c3 -5 13 -10 21 -10 8 0 13 -6 12 -12 -2 -7 5 -12 14 -10
9 1 23 -7 32 -19 8 -12 25 -23 38 -24 15 -1 22 -8 20 -19 -2 -12 5 -16 33 -16
25 0 35 4 35 15 0 14 -40 38 -67 40 -6 0 -20 8 -30 17 -10 10 -38 24 -62 33
-51 18 -54 18 -46 5z"/>
<path d="M1532 4438 c7 -7 22 -20 33 -28 15 -10 14 -7 -4 13 -14 15 -29 27
-33 27 -5 0 -3 -6 4 -12z"/>
<path d="M2000 4441 c0 -5 21 -12 46 -16 49 -7 74 0 30 10 -14 3 -37 7 -51 10
-14 3 -25 1 -25 -4z"/>
<path d="M1495 4430 c3 -5 16 -15 28 -21 l22 -11 -22 21 c-23 22 -39 28 -28
11z"/>
<path d="M1190 4416 c0 -2 8 -10 18 -17 15 -13 16 -12 3 4 -13 16 -21 21 -21
13z"/>
<path d="M1485 4400 c10 -11 20 -18 23 -15 7 6 -18 35 -31 35 -5 0 -2 -9 8
-20z"/>
<path d="M1695 4405 c-114 -32 -114 -32 -7 -31 56 0 102 4 102 8 0 5 -9 8 -20
8 -11 0 -20 4 -20 10 0 5 6 7 13 4 7 -2 31 0 52 5 l40 9 -55 0 c-30 1 -77 -6
-105 -13z"/>
<path d="M1226 4365 c4 -8 11 -15 16 -15 6 0 5 6 -2 15 -7 8 -14 15 -16 15 -2
0 -1 -7 2 -15z"/>
<path d="M1093 4345 c8 -16 21 -43 28 -58 7 -16 15 -24 17 -18 2 6 8 9 13 5
14 -8 11 10 -6 32 -13 18 -14 18 -9 -6 3 -18 1 -16 -8 7 -7 18 -21 40 -31 50
-18 17 -18 17 -4 -12z"/>
<path d="M1052 4335 c6 -13 15 -22 21 -18 5 3 6 -3 2 -16 -3 -12 -1 -29 7 -40
11 -15 15 -16 25 -5 8 8 9 15 3 19 -6 3 -10 1 -10 -6 0 -7 -3 -9 -7 -5 -4 4
-7 21 -8 39 0 20 -5 31 -12 30 -7 -2 -13 4 -13 12 0 8 -4 15 -10 15 -6 0 -5
-10 2 -25z"/>
<path d="M1010 4338 c0 -9 7 -23 15 -32 19 -19 19 -21 -5 -23 -11 -1 -20 4
-20 13 0 8 -4 14 -10 14 -5 0 -10 7 -10 16 0 8 -5 12 -11 8 -8 -4 -8 -9 0 -17
6 -6 11 -19 11 -29 0 -17 15 -22 57 -21 10 1 10 -4 1 -21 -11 -18 -13 -19 -16
-3 -4 18 -14 22 -25 10 -4 -3 -1 -13 6 -21 9 -12 6 -11 -14 2 -20 12 -25 23
-21 38 3 15 1 19 -9 16 -19 -7 -13 -68 7 -88 15 -13 15 -12 9 10 -6 20 -5 23
6 13 18 -18 46 -16 53 3 3 8 10 13 15 10 5 -3 12 1 15 11 4 9 -6 34 -24 62
-16 26 -30 39 -30 29z"/>
<path d="M1147 4343 c-3 -5 5 -23 18 -41 22 -33 41 -30 29 3 -5 13 -8 14 -15
3 -6 -9 -9 -7 -9 9 0 23 -15 39 -23 26z"/>
<path d="M1195 4340 c-3 -5 -1 -10 4 -10 6 0 11 5 11 10 0 6 -2 10 -4 10 -3 0
-8 -4 -11 -10z"/>
<path d="M930 4305 c0 -15 4 -24 10 -20 6 3 10 12 10 20 0 8 -4 17 -10 20 -6
4 -10 -5 -10 -20z"/>
<path d="M1258 4313 c6 -2 18 -2 25 0 6 3 1 5 -13 5 -14 0 -19 -2 -12 -5z"/>
<path d="M896 4302 c-3 -6 -4 -17 -1 -26 17 -53 16 -51 25 -36 6 8 10 11 10 5
0 -5 -4 -16 -9 -23 -6 -11 -10 -10 -15 4 -6 16 -9 16 -17 4 -8 -12 -9 -11 -5
5 3 11 1 27 -4 35 -9 13 -10 13 -11 0 0 -10 -3 -8 -9 5 -8 19 -9 19 -9 -2 -1
-12 -6 -25 -13 -29 -8 -5 -9 0 -6 14 4 14 2 22 -7 22 -7 0 -16 -12 -19 -26 -6
-23 -9 -24 -19 -11 -7 9 -21 15 -32 12 -11 -2 -24 -4 -28 -4 -5 -1 -6 -11 -3
-23 3 -13 3 -17 0 -10 -8 16 -35 15 -60 -2 -11 -8 -37 -17 -57 -21 -21 -4 -41
-15 -46 -24 -5 -9 -13 -15 -18 -14 -14 5 -43 -8 -43 -18 0 -6 -4 -8 -8 -5 -5
3 -23 -4 -41 -15 -18 -11 -30 -15 -26 -9 3 6 0 7 -9 4 -9 -3 -16 -13 -16 -21
0 -8 -5 -11 -10 -8 -6 3 -13 -1 -16 -10 -4 -9 -13 -14 -21 -11 -8 3 -24 -1
-36 -9 -12 -8 -29 -15 -39 -15 -9 0 -20 -9 -23 -20 -4 -11 -11 -18 -16 -14 -5
3 -25 -4 -44 -16 -19 -12 -35 -17 -35 -11 0 6 5 11 11 11 5 0 8 4 5 9 -7 11
-46 2 -46 -10 0 -15 -30 -10 -36 6 -5 13 -8 13 -21 0 -17 -17 -39 -19 -48 -5
-19 30 -23 -12 -24 -225 l-2 -234 23 -6 c111 -25 118 -25 143 -9 14 9 25 12
25 6 0 -5 -7 -13 -16 -16 -9 -4 -15 -8 -12 -11 4 -4 102 -26 183 -42 75 -14
150 4 115 28 -12 8 -11 9 5 7 14 -3 19 -11 18 -26 -2 -14 3 -22 13 -22 10 0
14 6 10 15 -3 9 0 15 9 15 9 0 12 -6 9 -15 -4 -10 0 -15 11 -15 12 0 15 5 10
19 -6 21 27 48 53 43 6 -2 12 1 12 6 0 10 117 35 130 27 6 -3 10 1 10 11 0 13
3 14 15 4 14 -11 19 -7 16 13 0 4 5 7 13 7 8 0 16 7 20 15 4 12 -2 14 -35 11
-22 -2 -42 -6 -45 -9 -8 -7 -34 3 -34 13 0 7 140 35 173 34 9 0 17 3 17 8 0 5
11 6 25 2 14 -3 25 -2 25 3 0 13 78 38 87 29 4 -4 -3 -9 -15 -13 -33 -8 -27
-20 12 -21 27 -1 36 3 41 18 5 17 29 26 58 21 4 0 7 6 7 14 0 21 18 19 23 -2
4 -17 5 -17 6 0 0 9 6 17 11 17 6 0 9 -5 8 -12 -2 -7 11 -13 30 -15 20 -2 32
2 32 10 0 6 12 20 25 30 21 15 25 15 25 3 0 -8 -5 -18 -10 -21 -5 -3 -10 -14
-10 -23 1 -16 2 -16 14 0 7 10 16 14 20 10 4 -4 6 0 4 8 -1 8 4 14 12 15 8 0
24 5 35 11 11 6 37 10 57 9 27 -1 38 3 41 14 4 14 5 14 6 0 1 -19 38 -32 47
-18 3 5 11 6 17 2 6 -4 26 -6 44 -5 19 2 33 -2 33 -8 0 -15 29 -44 36 -37 3 3
1 15 -6 26 -9 18 -8 21 10 21 17 0 19 -4 14 -27 l-6 -28 16 23 c10 12 24 22
33 22 14 0 14 2 -1 19 -13 14 -14 21 -6 26 7 4 16 1 21 -6 5 -8 16 -14 26 -15
48 -3 52 -4 46 -19 -3 -10 -1 -15 7 -13 7 2 15 -3 17 -11 4 -10 0 -11 -17 -6
-19 6 -21 5 -11 -14 l11 -21 22 22 c20 20 20 22 3 50 -20 35 -15 44 14 26 18
-11 22 -10 34 6 10 14 16 16 21 7 4 -6 16 -9 26 -6 22 7 37 -12 21 -28 -9 -9
-14 -9 -20 2 -6 10 -10 10 -16 1 -4 -7 -17 -9 -31 -6 -14 4 -24 2 -24 -4 0 -9
16 -14 46 -13 6 0 9 -8 7 -17 -7 -25 34 -50 77 -49 35 1 35 1 7 9 -46 14 -58
28 -45 56 14 31 48 42 63 20 13 -17 30 -23 20 -6 -8 13 1 12 48 -1 20 -5 37
-15 37 -22 1 -7 9 -2 19 11 23 27 28 27 34 5 4 -14 5 -14 6 3 0 12 -6 27 -14
34 -10 9 -15 9 -15 1 0 -19 -27 -12 -43 12 -13 17 -16 19 -16 5 -1 -19 -19
-18 -52 3 -17 12 -31 14 -48 7 -14 -5 -38 -4 -60 2 -55 15 -72 13 -64 -7 6
-16 5 -16 -10 -4 -9 7 -17 20 -17 27 0 16 -16 19 -25 4 -4 -6 -11 -8 -16 -4
-5 3 -16 0 -24 -6 -12 -10 -15 -10 -15 0 0 7 -7 10 -15 6 -9 -3 -15 0 -15 9 0
17 -16 20 -25 5 -3 -5 -12 -7 -20 -3 -9 3 -22 0 -30 -7 -13 -11 -18 -10 -29 6
-12 15 -16 16 -29 5 -9 -7 -21 -10 -26 -6 -6 3 -20 1 -31 -5 -15 -8 -25 -8
-34 -1 -7 6 -27 8 -45 5 -25 -5 -29 -9 -20 -20 10 -12 7 -12 -16 0 -19 10 -36
11 -57 5 -17 -5 -48 -6 -69 -4 -23 3 -39 1 -39 -5 0 -5 -7 -10 -15 -10 -8 0
-15 -7 -15 -16 0 -12 -3 -14 -13 -6 -7 6 -31 10 -52 8 -22 -2 -46 -4 -54 -5
-7 -1 -11 -7 -7 -16 8 -21 -11 -19 -23 3 -7 11 -13 13 -18 6 -9 -13 -54 -25
-100 -29 -18 -1 -39 -8 -48 -15 -14 -11 -17 -10 -22 8 -3 12 -10 22 -15 22 -5
0 -7 -9 -3 -19 3 -11 1 -22 -5 -26 -5 -3 -10 -1 -10 4 0 6 -5 11 -11 11 -6 0
-9 -6 -6 -14 7 -18 -27 -28 -57 -16 -23 8 -60 -5 -52 -19 3 -4 -9 -8 -25 -8
-17 0 -35 -6 -39 -14 -11 -17 -24 -5 -17 15 4 9 14 12 26 9 12 -3 21 -1 21 5
0 5 10 13 23 17 14 4 17 8 9 12 -10 4 -9 9 4 24 11 12 13 19 6 20 -7 1 -18 2
-24 3 -8 1 -14 18 -14 44 -2 33 3 46 17 55 10 6 19 17 19 24 0 7 7 13 15 13 8
0 15 -5 15 -11 0 -5 5 -7 11 -3 7 4 7 9 2 13 -6 3 -12 12 -14 20 -4 11 -7 11
-19 -1 -8 -8 -22 -17 -30 -21 -8 -4 -22 -11 -30 -17 -79 -51 -167 -100 -180
-99 -10 0 -7 4 8 11 12 6 22 15 22 20 0 4 6 8 14 8 8 0 17 13 21 28 7 33 45
63 45 35 0 -14 2 -15 13 -4 10 10 9 15 -6 25 -22 17 -22 29 1 22 24 -8 60 50
42 67 -10 9 -12 8 -7 -5 4 -10 2 -18 -3 -18 -6 0 -10 -7 -10 -16 0 -8 -4 -13
-10 -9 -5 3 -7 12 -3 20 3 9 -1 15 -11 15 -17 0 -22 36 -8 55 11 16 112 65
112 54 0 -5 -4 -9 -10 -9 -5 0 -10 -5 -10 -11 0 -8 5 -8 15 1 12 10 15 10 15
-1 1 -10 5 -9 14 4 8 10 18 17 22 16 17 -3 54 13 49 22 -3 4 -12 6 -20 2 -10
-3 -15 1 -15 12 0 9 5 13 10 10 6 -3 10 -1 10 5 0 6 5 8 10 5 6 -3 17 1 26 10
9 9 30 19 46 22 16 3 32 12 35 19 3 8 8 12 12 10 3 -2 11 2 17 8 9 9 8 24 -3
57 -17 50 -28 65 -37 51z m-114 -97 c-4 -5 -8 -1 -11 10 -4 20 -4 20 -11 1 -6
-19 -7 -19 -12 2 -4 12 -2 20 3 16 5 -3 9 0 9 7 0 7 6 4 14 -6 8 -11 11 -24 8
-30z m-62 -20 c0 -5 -5 -3 -10 5 -5 8 -10 20 -10 25 0 6 5 3 10 -5 5 -8 10
-19 10 -25z m87 3 c-3 -8 -6 -5 -6 6 -1 11 2 17 5 13 3 -3 4 -12 1 -19z m-60
-40 c-3 -7 -5 -2 -5 12 0 14 2 19 5 13 2 -7 2 -19 0 -25z m-129 -3 c-3 -3 -9
2 -12 12 -6 14 -5 15 5 6 7 -7 10 -15 7 -18z m52 -10 c0 -5 -5 -3 -10 5 -5 8
-10 20 -10 25 0 6 5 3 10 -5 5 -8 10 -19 10 -25z m-109 -8 c-10 -9 -11 -8 -5
6 3 10 9 15 12 12 3 -3 0 -11 -7 -18z m89 9 c0 -2 -8 -10 -17 -17 -16 -13 -17
-12 -4 4 13 16 21 21 21 13z m94 -61 c-26 -19 -32 -9 -8 14 10 10 21 14 23 9
1 -5 -5 -15 -15 -23z m-320 -24 c3 -5 -1 -11 -9 -15 -8 -3 -17 0 -21 6 -4 7
-3 8 4 4 7 -4 12 -2 12 3 0 13 7 14 14 2z m167 -101 c5 -4 1 -23 -11 -46 -17
-35 -19 -37 -21 -14 -2 28 -2 77 1 100 1 9 5 4 11 -10 6 -13 14 -27 20 -30z
m-86 -6 c-9 -9 -19 -13 -23 -10 -3 4 0 11 8 16 24 15 33 11 15 -6z m12 -26
c-3 -8 -6 -5 -6 6 -1 11 2 17 5 13 3 -3 4 -12 1 -19z m-51 -15 c-10 -10 -19 5
-10 18 6 11 8 11 12 0 2 -7 1 -15 -2 -18z m71 -10 c-3 -10 -5 -4 -5 12 0 17 2
24 5 18 2 -7 2 -21 0 -30z m-42 7 c3 -5 1 -10 -4 -10 -6 0 -11 5 -11 10 0 6 2
10 4 10 3 0 8 -4 11 -10z m-28 -42 c-3 -8 -6 -5 -6 6 -1 11 2 17 5 13 3 -3 4
-12 1 -19z m31 -13 c-3 -3 -9 2 -12 12 -6 14 -5 15 5 6 7 -7 10 -15 7 -18z
m32 -5 c0 -5 -5 -10 -11 -10 -5 0 -7 5 -4 10 3 6 8 10 11 10 2 0 4 -4 4 -10z
m-43 -32 c-3 -8 -6 -5 -6 6 -1 11 2 17 5 13 3 -3 4 -12 1 -19z m183 -27 c0 -6
-4 -13 -10 -16 -5 -3 -10 1 -10 9 0 9 5 16 10 16 6 0 10 -4 10 -9z m690 -1 c0
-5 -4 -10 -10 -10 -5 0 -10 5 -10 10 0 6 5 10 10 10 6 0 10 -4 10 -10z m-920
-58 c0 -5 -13 -18 -30 -30 -35 -27 -40 -19 -7 13 23 24 37 30 37 17z m155 -92
c-3 -6 -12 -10 -18 -9 -13 2 -33 -4 -94 -33 -63 -29 -76 -16 -14 15 29 14 59
23 67 20 8 -3 14 0 14 5 0 6 10 12 23 14 27 5 31 3 22 -12z m-278 -12 c-3 -8
-6 -5 -6 6 -1 11 2 17 5 13 3 -3 4 -12 1 -19z m368 -28 c-3 -5 -17 -10 -31
-10 -16 0 -24 -6 -24 -17 0 -14 -2 -15 -12 -4 -11 10 -9 15 6 27 22 16 70 19
61 4z m-98 -36 c-3 -3 -12 -4 -19 -1 -8 3 -5 6 6 6 11 1 17 -2 13 -5z m-47
-12 c0 -8 -58 -32 -78 -32 -7 0 -12 5 -12 10 0 6 12 10 28 10 15 0 34 5 42 10
18 12 20 12 20 2z m-190 -22 c-27 -21 -40 -25 -40 -12 0 9 38 30 55 31 6 0 -1
-8 -15 -19z"/>
<path d="M1220 4299 c0 -5 5 -7 10 -4 6 3 10 8 10 11 0 2 -4 4 -10 4 -5 0 -10
-5 -10 -11z"/>
<path d="M3975 4299 c-11 -17 1 -21 15 -4 8 9 8 15 2 15 -6 0 -14 -5 -17 -11z"/>
<path d="M791 4264 c0 -11 3 -14 6 -6 3 7 2 16 -1 19 -3 4 -6 -2 -5 -13z"/>
<path d="M1258 4273 c7 -3 16 -2 19 1 4 3 -2 6 -13 5 -11 0 -14 -3 -6 -6z"/>
<path d="M3826 4185 c4 -8 12 -15 20 -15 20 0 17 7 -6 20 -16 9 -18 8 -14 -5z"/>
<path d="M991 4181 c-7 -5 -9 -11 -5 -14 5 -3 15 1 22 9 14 16 5 18 -17 5z"/>
<path d="M905 4144 c-16 -8 -32 -18 -35 -21 -9 -10 44 9 65 23 26 19 7 18 -30
-2z"/>
<path d="M3850 4140 c0 -5 5 -10 10 -10 6 0 10 5 10 10 0 6 -4 10 -10 10 -5 0
-10 -4 -10 -10z"/>
<path d="M3920 4137 c12 -10 50 -100 50 -121 0 -3 -13 -3 -29 0 -23 5 -30 2
-34 -12 -4 -15 -5 -16 -6 -3 0 9 -10 19 -20 22 -13 3 -22 17 -26 41 -8 41 -20
53 -39 37 -7 -6 -16 -8 -19 -4 -4 3 -7 2 -7 -3 0 -5 14 -15 30 -22 23 -11 30
-20 30 -42 0 -16 -4 -32 -10 -35 -5 -3 -10 -11 -10 -16 0 -6 4 -7 10 -4 5 3
23 -1 39 -11 27 -16 29 -16 59 6 17 13 38 20 46 17 9 -4 27 4 43 18 l28 24
-22 20 c-12 12 -31 21 -42 21 -15 0 -23 10 -30 38 -8 29 -16 38 -33 39 -20 2
-21 0 -8 -10z"/>
<path d="M1055 4087 c-54 -29 -101 -58 -103 -66 -3 -10 4 -8 24 6 16 12 57 34
90 50 64 31 115 63 99 62 -6 0 -55 -24 -110 -52z"/>
<path d="M3870 4084 c0 -8 5 -12 11 -9 6 4 13 -2 16 -14 3 -12 9 -21 14 -21
11 0 11 3 -1 34 -10 28 -40 36 -40 10z"/>
<path d="M3765 4050 c-3 -5 -2 -10 4 -10 5 0 13 5 16 10 3 6 2 10 -4 10 -5 0
-13 -4 -16 -10z"/>
<path d="M910 4000 c-8 -5 -11 -12 -8 -16 4 -3 14 1 23 10 18 17 9 21 -15 6z"/>
<path d="M746 3983 c-6 -14 -5 -15 5 -6 7 7 10 15 7 18 -3 3 -9 -2 -12 -12z"/>
<path d="M870 3970 c0 -5 5 -10 10 -10 6 0 10 5 10 10 0 6 -4 10 -10 10 -5 0
-10 -4 -10 -10z"/>
<path d="M805 3944 c-11 -8 -27 -19 -35 -24 -8 -5 -12 -11 -9 -15 8 -7 89 36
89 47 0 13 -23 9 -45 -8z"/>
<path d="M677 3939 c-22 -13 -13 -29 16 -29 18 0 19 2 7 10 -13 9 -13 11 0 20
20 13 0 12 -23 -1z"/>
<path d="M641 3893 c-18 -19 -10 -25 12 -8 10 7 15 15 10 18 -4 3 -14 -2 -22
-10z"/>
<path d="M1090 3789 c0 -5 5 -7 10 -4 6 3 10 8 10 11 0 2 -4 4 -10 4 -5 0 -10
-5 -10 -11z"/>
<path d="M890 3769 c0 -5 5 -7 10 -4 6 3 10 8 10 11 0 2 -4 4 -10 4 -5 0 -10
-5 -10 -11z"/>
<path d="M2168 3764 c-3 -3 -3 -17 1 -32 6 -20 15 -28 37 -30 16 -2 32 -9 36
-15 4 -7 12 -4 23 7 10 10 25 14 36 11 10 -4 36 -8 56 -10 21 -2 52 -8 69 -13
18 -6 37 -6 45 -1 10 6 2 9 -23 9 -21 0 -38 5 -38 10 0 6 -15 10 -34 10 -19 0
-38 5 -41 10 -4 6 -15 8 -26 5 -10 -4 -29 1 -41 9 -34 24 -59 20 -29 -4 23
-20 17 -26 -14 -14 -9 4 -21 17 -26 30 -8 23 -20 30 -31 18z"/>
<path d="M750 3730 c0 -6 -7 -10 -15 -10 -8 0 -15 -4 -15 -9 0 -5 14 -9 30 -9
31 1 41 22 15 32 -8 3 -15 1 -15 -4z"/>
<path d="M1748 3723 c7 -3 16 -2 19 1 4 3 -2 6 -13 5 -11 0 -14 -3 -6 -6z"/>
<path d="M1460 3712 c0 -7 7 -20 15 -28 19 -20 20 -4 0 22 -9 12 -14 14 -15 6z"/>
<path d="M1500 3711 c0 -12 42 -42 49 -36 5 5 -34 45 -44 45 -3 0 -5 -4 -5 -9z"/>
<path d="M1556 3706 c3 -9 11 -16 16 -16 13 0 5 23 -10 28 -7 2 -10 -2 -6 -12z"/>
<path d="M1430 3680 c0 -11 4 -20 9 -20 5 0 7 9 4 20 -3 11 -7 20 -9 20 -2 0
-4 -9 -4 -20z"/>
<path d="M2003 3678 c20 -6 37 -14 37 -19 0 -5 5 -9 10 -9 16 0 11 27 -6 34
-9 3 -30 6 -47 5 l-32 -1 38 -10z"/>
<path d="M1865 3670 c3 -5 8 -10 11 -10 2 0 4 5 4 10 0 6 -5 10 -11 10 -5 0
-7 -4 -4 -10z"/>
<path d="M2510 3670 c-17 -10 -3 -31 15 -23 9 3 26 -2 40 -11 27 -18 35 -20
35 -8 -1 27 -65 58 -90 42z"/>
<path d="M1190 3667 c0 -15 31 -69 37 -63 3 3 -4 20 -16 38 -11 18 -21 29 -21
25z"/>
<path d="M1390 3649 c0 -5 5 -7 10 -4 6 3 10 8 10 11 0 2 -4 4 -10 4 -5 0 -10
-5 -10 -11z"/>
<path d="M1550 3650 c0 -5 5 -10 11 -10 5 0 7 5 4 10 -3 6 -8 10 -11 10 -2 0
-4 -4 -4 -10z"/>
<path d="M1820 3650 c0 -5 5 -10 11 -10 5 0 7 5 4 10 -3 6 -8 10 -11 10 -2 0
-4 -4 -4 -10z"/>
<path d="M2125 3646 c32 -9 41 -17 43 -39 2 -15 9 -27 18 -27 8 0 20 -11 26
-25 14 -30 42 -35 33 -5 -4 12 -2 20 5 20 22 0 0 18 -30 23 -17 4 -30 13 -30
21 0 26 -30 46 -68 45 l-37 -1 40 -12z"/>
<path d="M947 3644 c-3 -6 3 -25 14 -42 10 -18 19 -40 20 -50 0 -13 3 -12 11
6 9 18 8 25 -5 35 -9 6 -20 23 -25 36 -5 14 -11 20 -15 15z"/>
<path d="M1250 3625 c0 -14 4 -25 9 -25 12 0 19 21 13 38 -8 21 -22 13 -22
-13z"/>
<path d="M1770 3641 c0 -6 5 -13 10 -16 6 -3 10 1 10 9 0 9 -4 16 -10 16 -5 0
-10 -4 -10 -9z"/>
<path d="M1085 3630 c-3 -5 -1 -10 4 -10 6 0 11 5 11 10 0 6 -2 10 -4 10 -3 0
-8 -4 -11 -10z"/>
<path d="M1120 3630 c-12 -8 -10 -10 8 -10 13 0 20 4 17 10 -7 12 -6 12 -25 0z"/>
<path d="M2618 3618 c3 -12 8 -15 16 -10 6 5 18 11 26 14 8 3 1 7 -16 9 -26 4
-30 2 -26 -13z"/>
<path d="M990 3624 c0 -13 31 -35 41 -28 9 5 6 11 -6 21 -20 14 -35 17 -35 7z"/>
<path d="M1715 3620 c27 -12 35 -12 35 0 0 6 -12 10 -27 9 -25 0 -26 -1 -8 -9z"/>
<path d="M2105 3620 c3 -5 11 -10 16 -10 6 0 7 5 4 10 -3 6 -11 10 -16 10 -6
0 -7 -4 -4 -10z"/>
<path d="M2210 3620 c0 -5 10 -10 23 -10 18 0 19 2 7 10 -19 13 -30 13 -30 0z"/>
<path d="M864 3596 c-6 -24 -15 -31 -39 -26 -5 1 -4 -4 3 -11 10 -11 17 -8 39
14 21 20 24 30 16 38 -9 9 -14 5 -19 -15z"/>
<path d="M906 3612 c-2 -4 -1 -14 5 -22 7 -12 9 -10 9 8 0 23 -5 28 -14 14z"/>
<path d="M1630 3613 c0 -5 4 -14 9 -21 6 -10 10 -9 14 7 3 14 0 21 -9 21 -8 0
-14 -3 -14 -7z"/>
<path d="M830 3600 c0 -5 5 -10 10 -10 6 0 10 5 10 10 0 6 -4 10 -10 10 -5 0
-10 -4 -10 -10z"/>
<path d="M1407 3599 c7 -7 15 -10 18 -7 3 3 -2 9 -12 12 -14 6 -15 5 -6 -5z"/>
<path d="M1548 3598 c-12 -7 -5 -8 47 -8 3 0 4 3 3 7 -4 10 -35 11 -50 1z"/>
<path d="M1680 3601 c0 -6 5 -13 10 -16 6 -3 10 1 10 9 0 9 -4 16 -10 16 -5 0
-10 -4 -10 -9z"/>
<path d="M2670 3600 c-13 -8 -13 -10 2 -10 9 0 20 5 23 10 8 13 -5 13 -25 0z"/>
<path d="M2716 3595 c4 -8 13 -15 21 -15 13 0 13 3 3 15 -7 8 -16 15 -21 15
-5 0 -6 -7 -3 -15z"/>
<path d="M2863 3595 c16 -9 31 -14 35 -11 8 9 0 14 -33 21 l-30 6 28 -16z"/>
<path d="M1360 3590 c0 -5 5 -10 11 -10 5 0 7 5 4 10 -3 6 -8 10 -11 10 -2 0
-4 -4 -4 -10z"/>
<path d="M1790 3596 c0 -2 8 -10 18 -17 15 -13 16 -12 3 4 -13 16 -21 21 -21
13z"/>
<path d="M2780 3575 c0 -8 7 -15 15 -15 9 0 12 6 9 15 -4 8 -10 15 -15 15 -5
0 -9 -7 -9 -15z"/>
<path d="M941 3564 c0 -11 3 -14 6 -6 3 7 2 16 -1 19 -3 4 -6 -2 -5 -13z"/>
<path d="M1320 3570 c0 -5 5 -10 11 -10 5 0 7 5 4 10 -3 6 -8 10 -11 10 -2 0
-4 -4 -4 -10z"/>
<path d="M1405 3570 c-17 -7 -14 -9 13 -9 20 -1 31 3 27 9 -7 12 -13 12 -40 0z"/>
<path d="M1473 3573 c-7 -3 -9 -11 -6 -19 4 -11 -6 -14 -46 -14 -29 0 -51 5
-51 11 0 5 -4 7 -10 4 -5 -3 -10 -13 -10 -21 0 -10 14 -14 53 -14 55 0 106
-15 147 -42 14 -10 34 -17 45 -18 48 -1 105 -13 105 -22 0 -6 7 -7 16 -4 9 4
22 2 29 -4 10 -8 15 -8 21 1 4 8 11 4 20 -12 l13 -24 1 23 c0 14 5 22 13 20
17 -6 21 -49 6 -59 -8 -4 -10 -11 -6 -15 14 -14 37 30 32 60 -5 31 -36 61 -46
45 -6 -10 -58 -7 -76 4 -6 4 -18 4 -26 1 -8 -3 -18 -1 -22 5 -3 6 -19 11 -34
11 -16 0 -34 7 -41 15 -7 8 -18 15 -25 15 -6 0 -30 13 -51 28 -22 16 -44 27
-51 25z m42 -53 c3 -5 1 -10 -4 -10 -6 0 -11 5 -11 10 0 6 2 10 4 10 3 0 8 -4
11 -10z m65 -30 c0 -5 -7 -10 -15 -10 -8 0 -15 5 -15 10 0 6 7 10 15 10 8 0
15 -4 15 -10z"/>
<path d="M2300 3569 c0 -5 5 -7 10 -4 6 3 10 8 10 11 0 2 -4 4 -10 4 -5 0 -10
-5 -10 -11z"/>
<path d="M2830 3567 c0 -10 8 -17 18 -17 9 0 13 4 7 8 -5 4 -13 11 -17 16 -5
5 -8 2 -8 -7z"/>
<path d="M2970 3553 c0 -11 55 -53 69 -53 6 0 8 6 5 14 -4 11 -18 20 -66 44
-5 2 -8 0 -8 -5z"/>
<path d="M1027 3536 c-3 -8 -16 -16 -28 -18 -34 -5 -36 -27 -2 -27 140 -1 217
0 221 4 2 2 2 12 -2 21 -5 12 -10 14 -19 5 -17 -14 -99 -6 -136 14 -25 12 -30
12 -34 1z"/>
<path d="M1244 3515 c-16 -12 -17 -14 -2 -15 25 0 49 11 42 21 -7 13 -17 11
-40 -6z"/>
<path d="M2350 3520 c0 -5 5 -10 10 -10 6 0 10 5 10 10 0 6 -4 10 -10 10 -5 0
-10 -4 -10 -10z"/>
<path d="M938 3506 c-10 -7 -15 -16 -12 -19 4 -3 13 1 21 9 20 19 13 26 -9 10z"/>
<path d="M3642 3500 c0 -14 2 -19 5 -12 2 6 2 18 0 25 -3 6 -5 1 -5 -13z"/>
<path d="M843 3485 c-3 -9 -3 -19 1 -22 3 -4 6 -1 6 5 0 7 11 12 25 12 14 0
25 5 25 10 0 16 -50 11 -57 -5z"/>
<path d="M2590 3484 c0 -8 5 -12 10 -9 6 4 8 11 5 16 -9 14 -15 11 -15 -7z"/>
<path d="M3085 3463 c28 -41 53 -75 73 -98 7 -8 19 -30 27 -49 8 -19 19 -36
25 -38 6 -2 13 -17 16 -33 6 -35 31 -65 53 -65 14 1 14 2 -2 14 -16 13 -16 14
4 28 26 16 19 58 -10 58 -24 0 -41 20 -41 49 0 16 -18 42 -52 77 -29 30 -61
63 -70 74 -10 11 -25 20 -33 20 -11 0 -8 -9 10 -37z m195 -214 c0 -11 -4 -18
-10 -14 -5 3 -7 12 -3 20 7 21 13 19 13 -6z"/>
<path d="M638 3478 c-3 -7 -20 -13 -38 -14 -19 0 -35 -5 -37 -10 -2 -5 44 -7
109 -4 77 3 113 9 116 18 3 9 -8 12 -40 10 -23 -1 -57 1 -74 5 -23 6 -33 4
-36 -5z"/>
<path d="M810 3470 c0 -5 5 -10 10 -10 6 0 10 5 10 10 0 6 -4 10 -10 10 -5 0
-10 -4 -10 -10z"/>
<path d="M2550 3450 c0 -5 5 -10 10 -10 6 0 10 5 10 10 0 6 -4 10 -10 10 -5 0
-10 -4 -10 -10z"/>
<path d="M2619 3457 c0 -1 -2 -12 -3 -25 -3 -21 -2 -21 16 -5 10 9 18 17 18
18 0 4 -30 15 -31 12z"/>
<path d="M2755 3411 c-3 -5 -1 -12 5 -16 5 -3 10 1 10 9 0 18 -6 21 -15 7z"/>
<path d="M1846 3374 c-9 -22 3 -37 25 -31 10 3 20 0 21 -5 4 -10 30 -16 93
-23 17 -2 32 -4 35 -5 3 -1 26 -1 52 0 28 1 56 -5 71 -14 13 -9 27 -13 30 -9
4 3 7 1 7 -6 0 -8 7 -11 15 -7 10 4 15 -1 15 -14 0 -11 6 -20 14 -20 7 0 19
-7 26 -15 7 -8 21 -15 31 -15 11 0 19 -7 19 -15 0 -8 5 -15 11 -15 6 0 9 10 7
23 -2 12 -10 22 -19 22 -9 0 -24 7 -33 14 -24 20 -71 103 -68 119 2 6 -2 12
-9 12 -7 0 -10 -11 -7 -27 3 -25 0 -28 -24 -30 -19 -2 -28 3 -28 13 0 10 -6
14 -17 11 -52 -14 -72 -16 -78 -7 -3 6 -17 7 -30 4 -12 -3 -26 -1 -29 5 -4 5
-13 8 -20 5 -7 -3 -16 2 -19 10 -4 9 -12 13 -20 10 -8 -3 -20 2 -27 11 -16 19
-36 19 -44 -1z"/>
<path d="M3531 3304 c0 -11 3 -14 6 -6 3 7 2 16 -1 19 -3 4 -6 -2 -5 -13z"/>
<path d="M3130 3241 c0 -6 4 -13 10 -16 6 -3 7 1 4 9 -7 18 -14 21 -14 7z"/>
<path d="M3502 3200 c0 -19 2 -27 5 -17 2 9 2 25 0 35 -3 9 -5 1 -5 -18z"/>
<path d="M2510 3211 c0 -6 5 -13 10 -16 6 -3 10 1 10 9 0 9 -4 16 -10 16 -5 0
-10 -4 -10 -9z"/>
<path d="M2348 3198 c7 -9 24 -13 47 -10 45 5 38 14 -17 19 -34 4 -40 2 -30
-9z"/>
<path d="M2556 3191 c-7 -11 24 -91 36 -91 9 0 0 50 -13 64 -4 5 -5 15 -2 22
6 15 -12 20 -21 5z"/>
<path d="M3337 3192 c7 -5 15 -24 17 -43 2 -19 5 -41 6 -49 1 -9 5 -6 11 9 12
30 -8 91 -31 91 -11 0 -12 -2 -3 -8z"/>
<path d="M3290 3120 c0 -5 5 -10 10 -10 6 0 10 5 10 10 0 6 -4 10 -10 10 -5 0
-10 -4 -10 -10z"/>
<path d="M3450 3120 c0 -5 5 -10 11 -10 5 0 7 5 4 10 -3 6 -8 10 -11 10 -2 0
-4 -4 -4 -10z"/>
<path d="M2621 3094 c0 -11 3 -14 6 -6 3 7 2 16 -1 19 -3 4 -6 -2 -5 -13z"/>
<path d="M3518 3085 c2 -14 8 -25 12 -25 10 0 1 38 -10 45 -4 2 -5 -7 -2 -20z"/>
<path d="M3270 3090 c0 -5 5 -10 10 -10 6 0 10 5 10 10 0 6 -4 10 -10 10 -5 0
-10 -4 -10 -10z"/>
<path d="M3315 3080 c-3 -5 -1 -10 4 -10 6 0 11 5 11 10 0 6 -2 10 -4 10 -3 0
-8 -4 -11 -10z"/>
<path d="M2645 3070 c-3 -5 -1 -10 4 -10 6 0 11 5 11 10 0 6 -2 10 -4 10 -3 0
-8 -4 -11 -10z"/>
<path d="M3461 3064 c0 -11 3 -14 6 -6 3 7 2 16 -1 19 -3 4 -6 -2 -5 -13z"/>
<path d="M3355 3060 c3 -5 8 -10 11 -10 2 0 4 5 4 10 0 6 -5 10 -11 10 -5 0
-7 -4 -4 -10z"/>
<path d="M3330 3030 c24 -21 56 -28 45 -10 -4 6 -11 8 -16 5 -5 -4 -12 1 -15
9 -3 9 -13 16 -22 16 -11 0 -9 -5 8 -20z"/>
<path d="M3394 3020 c1 -16 7 -32 14 -35 6 -2 12 -12 13 -22 0 -16 1 -15 8 2
5 13 2 32 -8 52 -20 41 -28 42 -27 3z"/>
<path d="M3521 3038 c0 -9 -4 -25 -7 -35 -5 -14 -4 -15 5 -7 7 7 11 22 8 35
-2 13 -5 16 -6 7z"/>
<path d="M2729 3020 c51 -24 57 -25 39 -6 -8 7 -30 17 -49 20 -33 7 -32 6 10
-14z"/>
<path d="M3221 3025 c1 -19 18 -51 18 -35 0 8 -4 22 -9 30 -5 8 -9 11 -9 5z"/>
<path d="M2805 3000 c3 -5 10 -10 16 -10 5 0 9 5 9 10 0 6 -7 10 -16 10 -8 0
-12 -4 -9 -10z"/>
<path d="M3210 2960 c0 -5 5 -10 11 -10 5 0 7 5 4 10 -3 6 -8 10 -11 10 -2 0
-4 -4 -4 -10z"/>
<path d="M3574 2954 c3 -9 6 -27 6 -40 0 -14 4 -23 9 -19 5 3 8 18 6 33 -2 15
-4 30 -4 35 -1 4 -6 7 -12 7 -6 0 -8 -7 -5 -16z"/>
<path d="M3330 2945 c-12 -14 -6 -35 10 -35 5 0 7 7 4 15 -4 8 -2 15 4 15 6 0
13 -6 15 -12 3 -7 6 -3 6 10 1 25 -20 29 -39 7z"/>
<path d="M3510 2949 c0 -6 14 -30 30 -54 22 -32 30 -55 30 -88 0 -31 5 -47 15
-51 12 -4 15 -19 14 -58 -1 -29 1 -69 5 -88 3 -19 3 -29 0 -21 -9 18 -24 -6
-17 -26 5 -12 7 -12 15 -1 6 8 8 -10 4 -51 -4 -44 -2 -69 6 -79 9 -11 9 -13 1
-9 -6 4 -14 1 -16 -5 -3 -7 -6 -2 -6 11 -1 17 -4 22 -11 15 -7 -7 -8 -19 -1
-37 6 -15 7 -27 3 -27 -4 0 -13 14 -19 30 -6 17 -17 30 -24 30 -10 0 -10 -3
-1 -12 7 -7 12 -21 12 -33 0 -12 5 -26 12 -33 9 -9 9 -12 0 -12 -6 0 -14 11
-18 25 -3 14 -10 22 -15 19 -5 -3 -9 13 -9 36 0 38 1 40 16 25 22 -22 46 -2
34 29 -20 54 -71 159 -74 155 -9 -9 7 -58 17 -52 6 4 7 -4 3 -23 -4 -16 -8
-40 -8 -53 0 -15 -3 -20 -8 -12 -5 10 -9 9 -13 -3 -3 -8 -2 -18 3 -21 14 -9
12 -79 -2 -93 -15 -15 -28 -16 -28 -2 0 6 6 10 14 10 20 0 18 51 -3 79 -15 20
-18 20 -36 5 -19 -15 -19 -15 -1 -10 17 6 18 2 14 -39 -4 -35 -1 -51 14 -71
22 -27 20 -45 -2 -19 -17 21 -30 19 -30 -4 0 -24 -16 -36 -26 -20 -3 6 0 15 7
20 11 7 11 9 -3 9 -28 0 -33 -22 -9 -41 16 -13 21 -25 16 -39 -3 -11 -11 -20
-16 -20 -5 0 -9 -7 -9 -15 0 -8 -5 -15 -11 -15 -6 0 -9 9 -6 19 3 11 -1 22 -9
25 -16 6 -29 -10 -15 -18 5 -3 7 -16 4 -27 -5 -18 -3 -20 16 -14 19 6 21 3 21
-27 0 -32 0 -32 -16 -10 -32 46 -40 29 -54 -118 -5 -57 -14 -117 -19 -134 -23
-74 -41 -156 -51 -226 -17 -122 -74 -346 -101 -400 -4 -8 -10 -24 -14 -35 -5
-15 -8 -16 -14 -6 -7 11 -10 11 -17 0 -4 -7 -3 -14 4 -17 22 -7 14 -50 -10
-57 -25 -8 -68 -52 -68 -69 0 -7 9 -18 20 -26 24 -17 27 -60 5 -60 -8 0 -15
-5 -15 -11 0 -8 -5 -8 -15 1 -8 7 -15 16 -15 21 0 5 7 9 15 9 15 0 21 31 9 43
-9 9 -34 -4 -34 -18 0 -7 -4 -15 -8 -17 -16 -6 -112 -159 -112 -179 0 -10 -7
-19 -15 -19 -8 0 -15 -6 -15 -14 0 -8 -9 -21 -19 -28 -11 -8 -26 -29 -34 -48
-11 -25 -16 -29 -16 -15 -1 23 10 43 57 109 27 38 31 50 22 62 -10 12 -6 20
24 48 20 19 36 39 36 45 0 5 8 16 19 23 10 7 22 24 26 38 4 14 18 39 31 56 13
17 24 38 24 47 0 8 6 17 13 20 6 2 9 8 5 12 -4 4 -19 -5 -35 -19 -26 -24 -51
-31 -95 -27 -20 3 -24 -15 -5 -22 6 -2 8 -8 4 -13 -5 -5 -13 -1 -18 9 -6 9
-16 17 -24 17 -8 0 -18 6 -22 14 -4 8 -19 16 -32 18 -24 3 -24 3 -5 22 13 14
15 21 6 24 -6 2 -12 10 -12 17 0 7 -7 16 -16 19 -9 3 -14 13 -10 21 7 20 -14
77 -27 72 -7 -2 -13 -19 -14 -37 -4 -45 -13 -51 -14 -9 0 39 -21 145 -30 154
-4 3 -19 1 -34 -5 -20 -8 -31 -7 -42 1 -10 9 -17 9 -25 1 -7 -7 -20 -12 -30
-12 -25 0 -24 41 1 62 19 16 20 16 26 -3 4 -10 13 -19 21 -19 12 0 14 7 9 29
-5 22 -2 32 12 40 12 7 13 10 4 11 -10 0 -12 10 -8 40 5 37 -11 70 -21 42 -2
-7 -9 -12 -15 -12 -5 0 -7 3 -4 6 4 4 -3 15 -14 25 -18 15 -25 46 -29 133 0 5
-7 3 -15 -4 -9 -7 -13 -21 -10 -31 3 -9 1 -20 -5 -24 -6 -4 -10 4 -10 17 0 13
-5 29 -12 36 -9 9 -9 12 0 12 20 0 14 68 -8 92 -11 12 -20 29 -20 37 -1 12 -5
11 -19 -6 l-19 -22 -12 29 c-12 30 -41 47 -60 35 -5 -3 -10 -2 -10 3 0 6 21
15 48 21 l47 10 -42 -3 c-24 -2 -43 -1 -43 3 0 11 -59 30 -65 21 -3 -5 -13 -6
-22 -3 -14 6 -14 8 3 21 18 13 17 14 -6 7 -14 -4 -22 -4 -18 0 4 4 -8 20 -28
36 -59 46 -142 26 -130 -33 3 -15 1 -28 -4 -28 -5 0 -7 -7 -4 -15 3 -8 2 -20
-2 -27 -5 -7 -10 -33 -11 -58 -1 -25 -4 -88 -8 -140 -13 -189 -14 -236 -4
-295 6 -33 14 -64 17 -70 4 -5 8 -21 10 -35 5 -42 24 -94 43 -119 11 -13 19
-30 19 -37 0 -17 88 -134 101 -134 6 0 15 -13 20 -30 6 -16 18 -30 26 -30 8 0
37 -16 64 -36 27 -20 56 -37 65 -38 9 -1 19 -7 22 -13 4 -5 25 -16 47 -23 22
-7 45 -19 52 -27 14 -18 105 -46 143 -44 17 1 21 -2 13 -10 -7 -7 -2 -25 18
-62 16 -29 29 -67 29 -86 0 -33 1 -34 15 -15 14 18 14 18 14 -6 0 -14 -8 -43
-19 -65 -11 -22 -19 -50 -20 -62 0 -12 -7 -52 -16 -90 -45 -197 -104 -315
-201 -408 -18 -17 -33 -34 -33 -38 0 -4 44 -7 98 -7 l97 0 3 36 c1 26 -1 35
-10 31 -15 -5 -22 49 -8 58 6 4 10 1 10 -5 0 -6 5 -8 10 -5 8 5 7 11 -1 21 -9
11 -9 18 -1 26 7 7 12 24 12 39 0 15 6 29 13 32 9 3 9 8 -3 21 -12 16 -11 20
10 37 22 16 21 24 -3 20 -5 -1 -6 3 -2 9 3 5 14 10 25 10 29 0 186 -69 206
-91 9 -10 25 -19 35 -19 24 0 50 -11 45 -19 -3 -4 9 -12 25 -18 27 -11 31 -10
39 13 7 18 17 24 39 24 15 0 34 6 40 13 8 10 45 14 131 16 66 1 133 6 150 11
17 5 38 6 46 3 8 -3 20 -1 27 5 16 14 160 27 184 17 24 -11 53 -13 48 -5 -9
14 69 19 149 9 44 -6 98 -8 119 -5 28 5 39 3 43 -9 8 -19 28 -19 43 -1 9 11 3
16 -33 27 -34 10 -43 16 -35 26 15 17 2 33 -27 33 -14 0 -23 4 -20 9 3 5 28 8
56 8 33 -1 51 2 55 11 3 7 10 10 15 7 6 -4 16 -2 23 3 38 31 150 19 159 -16 3
-10 11 -19 19 -20 68 -5 126 -15 133 -22 5 -5 15 -6 22 -3 8 3 14 0 14 -6 0
-6 10 -21 21 -32 l22 -22 -7 36 c-4 19 -3 38 2 41 11 6 32 -37 32 -64 0 -11 9
-24 20 -30 13 -7 20 -21 20 -39 0 -40 29 -63 68 -55 25 5 32 3 32 -10 0 -9 7
-16 15 -16 12 0 13 4 3 25 -9 20 -9 28 2 38 10 9 11 9 6 0 -4 -7 -2 -13 3 -13
6 0 11 7 11 16 0 12 5 15 23 9 12 -4 48 -12 80 -18 39 -7 57 -16 57 -26 0 -8
3 -12 6 -8 3 3 3 14 0 25 -5 16 -13 19 -36 15 -23 -3 -30 0 -30 12 0 11 8 16
23 15 41 -4 49 -1 43 18 -4 13 2 21 24 29 17 6 30 17 30 24 0 10 -3 10 -12 1
-16 -16 -28 -15 -28 3 0 21 -20 19 -21 -2 -1 -10 -1 -21 0 -25 0 -5 -4 -8 -10
-8 -6 0 -8 -9 -4 -21 5 -15 4 -19 -4 -15 -6 4 -11 15 -11 24 0 10 -8 25 -17
34 -10 9 -24 24 -31 32 -7 9 -27 17 -45 17 -18 1 -24 3 -14 6 18 5 24 23 7 23
-5 0 -10 4 -10 10 0 5 7 7 15 4 16 -7 19 4 7 24 -7 10 -12 8 -25 -5 -15 -18
-17 -21 -17 -45 0 -8 -7 -5 -15 6 -14 18 -20 15 -16 -7 1 -5 -9 -1 -21 7 -32
23 -38 20 -33 -17 3 -25 0 -36 -16 -46 -24 -14 -24 -15 -33 22 -4 16 -2 27 4
27 5 0 10 -7 10 -15 0 -8 5 -15 10 -15 13 0 13 57 1 65 -6 3 -14 -3 -20 -12
-10 -17 -10 -17 -11 0 0 9 -5 17 -10 17 -7 0 -8 -13 -4 -35 4 -21 2 -35 -4
-35 -5 0 -9 10 -9 23 1 12 -2 31 -6 42 -6 19 -3 20 51 18 l57 -2 -37 16 c-29
12 -38 21 -38 40 0 14 4 21 10 18 6 -4 8 -11 5 -16 -4 -5 -1 -9 5 -9 8 0 9 10
5 30 -5 21 -3 30 6 30 10 0 10 3 1 12 -17 17 -15 41 3 34 19 -7 38 35 21 46
-8 6 -7 8 2 8 6 0 11 5 10 12 -2 8 9 11 32 10 26 -2 31 0 20 7 -12 8 -12 13
-2 23 6 6 12 8 12 2 0 -5 4 -4 8 3 4 7 28 15 52 18 25 3 39 2 33 -1 -30 -14
-11 -25 32 -18 39 5 45 4 45 -12 0 -17 1 -17 13 1 13 17 14 16 20 -12 6 -30 7
-30 41 -19 l36 11 0 192 c0 131 -3 193 -11 193 -6 0 -27 -17 -48 -37 -57 -58
-187 -173 -195 -173 -9 0 -128 -90 -137 -104 -4 -5 -16 -6 -28 -3 -14 3 -26
-1 -35 -15 -8 -11 -20 -17 -26 -13 -6 4 -17 0 -23 -8 -17 -22 -87 -58 -98 -52
-5 4 -9 -1 -9 -9 0 -15 -21 -21 -62 -18 -10 1 -18 -2 -18 -7 0 -10 -38 -24
-57 -22 -7 1 -13 -7 -13 -19 0 -19 -19 -26 -58 -21 -8 1 -19 -2 -25 -8 -7 -5
-62 -8 -124 -7 -89 2 -113 0 -113 -11 0 -8 -12 -13 -32 -13 -31 1 -32 1 -14
15 19 15 19 15 -5 15 -13 0 -37 -7 -53 -15 -37 -19 -48 -19 -89 4 -29 16 -81
30 -137 36 -8 1 -33 14 -54 28 -21 15 -47 27 -57 27 -12 0 -19 7 -19 20 0 23
-34 43 -60 35 -13 -4 -22 1 -30 15 -12 22 -40 28 -40 8 0 -8 -3 -9 -10 -2 -6
6 -13 34 -17 63 -5 43 -10 54 -29 62 -27 10 -30 19 -12 37 9 9 8 12 -4 12 -9
0 -19 -8 -21 -17 -3 -10 -5 -3 -6 15 -1 25 7 41 29 63 16 17 37 43 47 60 13
22 28 31 56 36 20 3 40 10 43 14 3 5 12 9 20 9 18 0 53 38 54 58 0 6 7 12 15
12 18 0 20 41 3 58 -9 9 -8 12 5 12 9 0 17 5 17 10 0 6 19 19 43 29 75 33 88
62 59 134 -7 16 -12 35 -12 43 0 17 16 19 23 2 3 -7 6 -2 7 12 l1 25 12 -23
c7 -12 16 -20 20 -16 4 4 1 14 -5 22 -10 11 -9 16 5 23 9 6 17 15 17 20 0 6 9
22 20 36 24 31 18 103 -13 147 -16 22 -17 30 -7 36 11 7 11 12 -1 26 -12 15
-12 17 1 12 8 -2 17 -15 21 -29 l6 -24 12 29 c6 16 23 42 36 58 20 24 25 40
25 86 -1 56 -1 57 -15 27 -7 -16 -14 -26 -14 -21 -1 5 -8 3 -16 -4 -9 -8 -15
-30 -15 -56 0 -36 -3 -44 -18 -44 -24 0 -42 19 -42 44 0 11 -8 28 -17 39 -18
19 -17 20 10 13 15 -3 27 -2 27 3 0 5 -11 12 -25 15 -27 7 -34 26 -10 26 8 0
15 -4 15 -10 0 -5 5 -10 10 -10 6 0 10 7 10 16 0 8 -4 12 -10 9 -6 -4 -10 5
-10 19 0 14 5 26 10 26 6 0 10 -4 10 -10 0 -5 5 -10 10 -10 15 0 12 21 -5 34
-12 9 -13 18 -5 46 15 53 12 84 -10 103 -15 13 -20 30 -21 69 0 44 -2 49 -10
30 -5 -13 -7 -27 -4 -32 3 -4 -2 -11 -11 -14 -15 -6 -15 -8 1 -26 16 -17 16
-20 2 -20 -24 0 -29 32 -12 73 18 45 18 42 -1 62 -20 19 -31 90 -15 99 7 5 11
-6 11 -33 0 -48 11 -57 35 -31 13 15 16 28 10 57 -4 21 -11 43 -16 49 -11 13
0 104 13 104 5 0 7 -19 4 -41 -3 -23 -1 -50 5 -61 10 -18 11 -18 30 6 10 13
19 32 19 43 -1 22 -23 53 -39 53 -16 0 -14 10 10 59 19 41 20 44 3 62 -9 10
-21 19 -25 19 -14 0 -23 -74 -10 -78 12 -4 15 -32 3 -32 -28 0 -47 93 -21 102
7 2 4 16 -10 38 -24 39 -27 70 -9 88 9 9 7 17 -10 35 -16 17 -22 36 -22 70 0
26 -4 47 -10 47 -5 0 -21 20 -36 45 -26 46 -34 53 -34 34z m35 -436 c10 -23
12 -40 6 -46 -8 -8 -31 47 -31 76 0 17 11 4 25 -30z m82 -65 c-3 -7 -5 -2 -5
12 0 14 2 19 5 13 2 -7 2 -19 0 -25z m-88 -128 c0 -23 -1 -22 -14 9 -19 43
-19 60 0 35 8 -10 14 -30 14 -44z m-25 -35 c5 -22 4 -26 -4 -15 -5 8 -10 24
-10 34 0 26 6 18 14 -19z m-37 -22 c-3 -10 -5 -2 -5 17 0 19 2 27 5 18 2 -10
2 -26 0 -35z m-17 -13 c0 -5 -4 -10 -10 -10 -5 0 -10 5 -10 10 0 6 5 10 10 10
6 0 10 -4 10 -10z m-16 -36 c10 -25 -1 -29 -14 -5 -6 12 -7 21 -1 21 5 0 12
-7 15 -16z m145 -86 c7 -21 9 -48 4 -65 -7 -25 -8 -23 -14 22 -3 28 -9 66 -13
85 -7 40 4 20 23 -42z m-219 1 c0 -5 -4 -9 -10 -9 -5 0 -10 7 -10 16 0 8 5 12
10 9 6 -3 10 -10 10 -16z m-1165 -59 c9 -10 15 -26 12 -35 -9 -21 -44 -19 -57
4 -17 33 -11 46 10 23 12 -12 26 -22 33 -22 7 1 2 9 -10 19 -13 11 -23 22 -23
25 0 12 18 5 35 -14z m1475 -26 c0 -18 -8 -18 -26 0 -19 20 -18 25 6 19 11 -3
20 -12 20 -19z m-57 -9 c-3 -9 -8 -14 -10 -11 -3 3 -2 9 2 15 9 16 15 13 8 -4z
m52 -42 c-5 -10 -7 -24 -6 -32 1 -7 -2 -10 -8 -6 -14 8 -14 35 -1 35 6 0 10 8
10 17 0 9 3 14 6 10 4 -3 3 -14 -1 -24z m-101 -9 c5 -14 4 -15 -9 -4 -17 14
-19 20 -6 20 5 0 12 -7 15 -16z m58 -71 c16 -24 25 -43 21 -43 -14 1 -63 77
-62 97 0 14 2 15 6 3 3 -8 19 -34 35 -57z m129 -130 c-12 -20 -14 -14 -5 12 4
9 9 14 11 11 3 -2 0 -13 -6 -23z m-81 -153 c0 -5 -7 -7 -15 -4 -8 4 -12 10 -9
15 6 11 24 2 24 -11z m20 -47 c0 -5 -8 -17 -17 -28 -14 -18 -15 -18 -9 -2 3
10 6 23 6 28 0 5 5 9 10 9 6 0 10 -3 10 -7z m-8 -57 c9 5 8 2 -2 -12 -8 -10
-15 -20 -16 -22 0 -1 -6 10 -13 25 -11 23 -10 25 3 14 8 -7 21 -9 28 -5z m-35
-67 c-6 -10 -16 -19 -21 -19 -4 0 -3 7 4 15 7 8 9 22 6 31 -5 14 -4 15 8 5 12
-10 13 -16 3 -32z m-61 -46 c-10 -10 -19 5 -10 18 6 11 8 11 12 0 2 -7 1 -15
-2 -18z m-119 -105 c-3 -8 -6 -5 -6 6 -1 11 2 17 5 13 3 -3 4 -12 1 -19z m-17
-84 c0 -2 -7 -4 -15 -4 -8 0 -15 4 -15 10 0 5 7 7 15 4 8 -4 15 -8 15 -10z
m-60 -24 c0 -5 -5 -10 -11 -10 -5 0 -7 5 -4 10 3 6 8 10 11 10 2 0 4 -4 4 -10z
m0 -50 c0 -5 -7 -7 -15 -4 -8 4 -12 10 -9 15 6 11 24 2 24 -11z m-302 -43 c-6
-20 -15 -37 -19 -37 -12 0 2 63 15 72 16 10 16 5 4 -35z m262 23 c13 -8 13
-10 -2 -10 -9 0 -20 5 -23 10 -8 13 5 13 25 0z m23 -35 c34 3 36 1 26 -17 -8
-14 -14 -16 -23 -9 -9 8 -18 6 -32 -7 -22 -20 -41 -22 -70 -5 -18 10 -24 10
-34 -2 -6 -8 -9 -19 -6 -24 4 -5 2 -12 -3 -15 -6 -4 -8 7 -6 24 4 30 -9 42
-18 18 -3 -7 -6 -8 -6 -3 -1 18 19 41 27 30 4 -6 19 -10 35 -10 15 1 27 -3 27
-8 0 -12 41 -4 41 8 0 5 -5 11 -12 14 -7 2 -9 -1 -4 -9 5 -8 4 -11 -3 -6 -6 4
-9 13 -5 22 3 10 9 11 17 5 6 -6 28 -8 49 -6z m-108 -55 c3 -5 1 -10 -4 -10
-6 0 -11 5 -11 10 0 6 2 10 4 10 3 0 8 -4 11 -10z m-592 -7 c-7 -2 -21 -2 -30
0 -10 3 -4 5 12 5 17 0 24 -2 18 -5z m464 -73 c-1 -16 -5 -30 -8 -30 -9 0 -19
42 -13 52 11 18 23 6 21 -22z m-114 13 c-7 -2 -19 -2 -25 0 -7 3 -2 5 12 5 14
0 19 -2 13 -5z m157 3 c0 -3 -4 -8 -10 -11 -5 -3 -10 -1 -10 4 0 6 5 11 10 11
6 0 10 -2 10 -4z m-146 -32 c4 -10 -3 -25 -19 -40 -15 -13 -38 -49 -51 -79
-14 -30 -30 -53 -35 -49 -5 3 -2 12 6 20 22 22 19 37 -4 24 -31 -16 -37 -12
-13 10 12 11 26 20 33 20 6 0 9 8 6 20 -3 14 0 20 10 20 13 0 13 2 2 17 -12
15 -12 16 5 10 15 -6 17 -3 13 12 -4 18 2 24 34 30 4 0 10 -6 13 -15z m52 -20
c-4 -9 -9 -15 -11 -12 -3 3 -3 13 1 22 4 9 9 15 11 12 3 -3 3 -13 -1 -22z m14
-56 c0 -6 -7 -7 -16 -4 -9 3 -20 6 -25 6 -6 0 -8 4 -5 9 8 12 46 2 46 -11z
m96 -24 c-15 -14 -36 -19 -36 -8 0 11 34 33 42 27 5 -2 2 -11 -6 -19z m-273
-83 c11 -1 8 -31 -3 -31 -5 0 -10 -7 -10 -15 0 -8 -4 -15 -10 -15 -5 0 -12
-11 -16 -25 -4 -14 -9 -24 -11 -21 -3 3 2 23 10 44 9 22 13 42 10 46 -14 14
-23 4 -23 -24 0 -16 -4 -30 -9 -30 -7 0 -5 35 4 66 2 6 14 10 27 8 12 -1 26
-3 31 -3z m145 -30 c3 -8 -1 -12 -9 -9 -7 2 -15 10 -17 17 -3 8 1 12 9 9 7 -2
15 -10 17 -17z m-241 -103 c-3 -8 -6 -5 -6 6 -1 11 2 17 5 13 3 -3 4 -12 1
-19z m1750 -84 c-9 -9 -28 6 -21 18 4 6 10 6 17 -1 6 -6 8 -13 4 -17z m-39
-54 c-2 -33 -13 -40 -20 -12 -6 21 1 42 13 42 5 0 8 -13 7 -30z m131 -137 c0
-5 -4 -17 -9 -28 -8 -18 -9 -17 -9 8 -1 15 4 27 9 27 6 0 10 -3 9 -7z m91 -37
c0 -3 -4 -8 -10 -11 -5 -3 -10 -1 -10 4 0 6 5 11 10 11 6 0 10 -2 10 -4z m17
-28 c-3 -7 -5 -2 -5 12 0 14 2 19 5 13 2 -7 2 -19 0 -25z m-197 -4 c0 -8 -4
-12 -10 -9 -5 3 -10 10 -10 16 0 5 5 9 10 9 6 0 10 -7 10 -16z m165 -4 c3 -5
1 -10 -4 -10 -6 0 -11 5 -11 10 0 6 2 10 4 10 3 0 8 -4 11 -10z m-30 -18 c-3
-3 -11 0 -18 7 -9 10 -8 11 6 5 10 -3 15 -9 12 -12z m75 -12 c10 -19 10 -20
-9 -8 -22 13 -28 28 -11 28 5 0 14 -9 20 -20z m-144 -19 c0 -11 -4 -17 -8 -15
-4 3 -8 12 -8 20 0 8 4 14 8 14 4 0 8 -9 8 -19z m-41 -10 c3 -5 1 -12 -5 -16
-5 -3 -10 1 -10 9 0 18 6 21 15 7z m35 -31 c0 -5 -4 -10 -10 -10 -5 0 -10 5
-10 10 0 6 5 10 10 10 6 0 10 -4 10 -10z"/>
<path d="M2369 2911 c-206 -66 -337 -283 -300 -496 34 -193 188 -340 384 -368
119 -17 249 25 351 113 49 42 116 140 116 169 0 15 5 32 11 38 18 18 21 196 4
230 -8 15 -15 34 -15 42 0 54 -124 209 -156 197 -8 -3 -12 -1 -9 4 8 12 -59
54 -119 74 -63 22 -195 20 -267 -3z m182 -277 c205 -123 220 -140 157 -187
-63 -46 -304 -187 -321 -187 -38 0 -45 33 -46 236 -2 207 1 224 44 224 12 0
86 -39 166 -86z m369 -194 c0 -5 -5 -10 -11 -10 -5 0 -7 5 -4 10 3 6 8 10 11
10 2 0 4 -4 4 -10z"/>
<path d="M3239 2918 c7 -9 9 -23 5 -30 -6 -10 -4 -11 7 0 11 10 10 15 -6 30
-17 15 -18 15 -6 0z"/>
<path d="M2887 2913 c-2 -5 -1 -19 4 -33 7 -23 7 -23 8 8 1 31 -3 40 -12 25z"/>
<path d="M3202 2890 c0 -14 2 -19 5 -12 2 6 2 18 0 25 -3 6 -5 1 -5 -13z"/>
<path d="M3437 2873 c6 -42 10 -49 19 -40 9 9 -5 77 -16 77 -5 0 -6 -17 -3
-37z"/>
<path d="M3366 2873 c-7 -18 19 -51 31 -39 4 4 1 11 -7 16 -11 7 -11 11 -1 24
11 13 11 16 -2 16 -8 0 -18 -8 -21 -17z"/>
<path d="M3633 2809 c0 -22 4 -42 8 -45 5 -3 9 13 9 35 0 22 -4 42 -9 45 -4 3
-8 -13 -8 -35z"/>
<path d="M3205 2780 c-3 -5 -1 -10 4 -10 6 0 11 5 11 10 0 6 -2 10 -4 10 -3 0
-8 -4 -11 -10z"/>
<path d="M3350 2779 c0 -4 10 -14 23 -20 12 -7 26 -17 30 -23 5 -6 5 -1 2 12
-4 14 -2 22 6 22 7 0 9 3 5 7 -10 11 -66 12 -66 2z"/>
<path d="M3491 2774 c1 -21 16 -47 21 -38 4 5 0 18 -8 29 -8 10 -14 15 -13 9z"/>
<path d="M3247 2735 c7 -49 13 -58 13 -19 0 16 -5 36 -10 44 -6 10 -7 2 -3
-25z"/>
<path d="M3450 2762 c0 -5 7 -15 15 -22 8 -7 15 -9 15 -6 0 4 -7 14 -15 22 -8
9 -15 11 -15 6z"/>
<path d="M3205 2728 c4 -18 16 -47 26 -64 10 -17 19 -49 19 -70 1 -31 3 -36
11 -22 10 19 2 88 -11 88 -11 0 -30 48 -30 75 0 14 -5 25 -11 25 -7 0 -8 -12
-4 -32z"/>
<path d="M3360 2706 c0 -9 5 -16 10 -16 6 0 10 4 10 9 0 6 -4 13 -10 16 -5 3
-10 -1 -10 -9z"/>
<path d="M3466 2704 c-9 -25 -7 -52 5 -60 8 -5 10 3 7 24 -2 17 0 33 6 35 6 2
6 6 -1 10 -6 4 -14 0 -17 -9z"/>
<path d="M3520 2710 c0 -5 5 -10 10 -10 6 0 10 5 10 10 0 6 -4 10 -10 10 -5 0
-10 -4 -10 -10z"/>
<path d="M3636 2704 c-10 -26 -7 -44 7 -41 7 1 11 -7 9 -23 -3 -24 -2 -24 13
-5 8 11 13 26 10 33 -3 8 -5 22 -5 33 0 23 -25 25 -34 3z"/>
<path d="M3501 2684 c0 -11 3 -14 6 -6 3 7 2 16 -1 19 -3 4 -6 -2 -5 -13z"/>
<path d="M3396 2671 c-7 -10 3 -41 13 -41 3 0 6 11 6 25 0 25 -9 33 -19 16z"/>
<path d="M3551 2664 c0 -11 3 -14 6 -6 3 7 2 16 -1 19 -3 4 -6 -2 -5 -13z"/>
<path d="M3520 2650 c0 -8 8 -24 16 -35 16 -19 16 -19 9 5 -9 31 -25 50 -25
30z"/>
<path d="M3370 2636 c0 -8 5 -18 10 -21 6 -3 10 3 10 14 0 12 -4 21 -10 21 -5
0 -10 -6 -10 -14z"/>
<path d="M3565 2620 c3 -5 8 -10 11 -10 2 0 4 5 4 10 0 6 -5 10 -11 10 -5 0
-7 -4 -4 -10z"/>
<path d="M3416 2594 c-10 -25 1 -29 14 -5 6 12 7 21 1 21 -5 0 -12 -7 -15 -16z"/>
<path d="M3463 2593 c0 -10 3 -23 8 -28 4 -6 4 -17 -1 -25 -6 -8 -10 -22 -10
-30 1 -11 4 -10 15 5 9 11 14 33 12 54 -4 36 -23 56 -24 24z"/>
<path d="M3555 2570 c4 -14 11 -29 16 -34 5 -6 9 -21 9 -34 0 -13 4 -20 10
-17 17 10 11 34 -16 73 -21 30 -24 32 -19 12z"/>
<path d="M3379 2568 c-4 -19 -9 -51 -6 -47 1 2 8 11 15 21 9 11 10 18 2 23 -5
3 -10 5 -11 3z"/>
<path d="M3392 2508 c-18 -18 -15 -27 8 -25 22 1 24 6 12 24 -6 10 -11 10 -20
1z"/>
<path d="M3216 2475 c-3 -8 -1 -15 4 -15 6 0 10 7 10 15 0 8 -2 15 -4 15 -2 0
-6 -7 -10 -15z"/>
<path d="M3368 2453 c6 -2 18 -2 25 0 6 3 1 5 -13 5 -14 0 -19 -2 -12 -5z"/>
<path d="M3366 2399 c-9 -45 -8 -48 13 -46 16 1 18 4 8 16 -10 12 -9 14 6 8
19 -7 24 8 5 17 -10 5 -10 7 0 12 18 9 14 24 -7 24 -13 0 -20 -10 -25 -31z"/>
<path d="M3875 2347 c-4 -10 -5 -21 -1 -24 10 -10 18 4 13 24 -4 17 -4 17 -12
0z"/>
<path d="M3704 2319 c-3 -6 1 -18 10 -27 10 -11 16 -12 16 -4 0 7 -5 12 -11
12 -6 0 -9 7 -5 15 6 17 0 20 -10 4z"/>
<path d="M3961 2314 c0 -11 3 -14 6 -6 3 7 2 16 -1 19 -3 4 -6 -2 -5 -13z"/>
<path d="M3986 2293 c4 -10 8 -35 9 -55 1 -21 5 -41 10 -45 4 -5 5 -1 3 7 -3
8 -1 23 4 32 6 12 3 28 -7 48 -16 32 -33 42 -19 13z"/>
<path d="M3350 2289 c0 -5 4 -8 9 -4 5 3 12 1 16 -5 3 -5 12 -10 18 -10 7 0 3
7 -7 15 -23 18 -36 19 -36 4z"/>
<path d="M3683 2268 c-9 -16 -12 -131 -3 -121 8 8 21 133 15 133 -2 0 -7 -6
-12 -12z"/>
<path d="M3710 2250 c0 -5 4 -10 9 -10 6 0 13 5 16 10 3 6 -1 10 -9 10 -9 0
-16 -4 -16 -10z"/>
<path d="M3746 2233 c-4 -9 -2 -21 4 -27 7 -7 10 -3 10 13 0 20 2 21 15 11 12
-10 15 -10 15 4 0 21 -36 21 -44 -1z"/>
<path d="M2930 2230 c0 -6 4 -9 8 -6 15 9 28 -75 26 -162 -1 -46 3 -85 8 -88
6 -4 5 -10 -3 -15 -11 -7 -11 -9 1 -9 8 0 30 -14 49 -30 18 -17 38 -30 43 -30
12 0 -26 49 -53 68 -14 9 -19 21 -15 34 2 12 -1 27 -9 34 -14 14 -9 40 19 104
6 14 12 30 15 35 2 6 -6 1 -19 -10 l-23 -20 6 36 c3 20 2 40 -1 46 -11 16 -52
26 -52 13z"/>
<path d="M3651 2214 c0 -11 3 -14 6 -6 3 7 2 16 -1 19 -3 4 -6 -2 -5 -13z"/>
<path d="M3706 2184 c-10 -79 -4 -103 9 -34 8 36 10 69 6 73 -5 4 -11 -13 -15
-39z"/>
<path d="M2080 2215 c0 -14 29 -61 49 -79 36 -32 30 -14 -10 37 -22 27 -39 46
-39 42z"/>
<path d="M3995 2170 c3 -5 2 -26 -4 -45 -7 -25 -6 -35 1 -33 14 5 21 88 7 88
-5 0 -7 -4 -4 -10z"/>
<path d="M3261 2154 c0 -11 3 -14 6 -6 3 7 2 16 -1 19 -3 4 -6 -2 -5 -13z"/>
<path d="M2081 2144 c0 -11 3 -14 6 -6 3 7 2 16 -1 19 -3 4 -6 -2 -5 -13z"/>
<path d="M3730 2126 c0 -31 6 -34 13 -6 3 11 1 23 -4 26 -5 3 -9 -6 -9 -20z"/>
<path d="M2100 2130 c0 -5 5 -10 11 -10 5 0 7 5 4 10 -3 6 -8 10 -11 10 -2 0
-4 -4 -4 -10z"/>
<path d="M3920 2125 c0 -8 2 -15 4 -15 2 0 6 7 10 15 3 8 1 15 -4 15 -6 0 -10
-7 -10 -15z"/>
<path d="M3854 2069 c-3 -6 -1 -16 5 -22 8 -8 11 -5 11 11 0 24 -5 28 -16 11z"/>
<path d="M3717 2024 c-4 -27 -9 -59 -13 -71 -3 -13 -2 -23 3 -23 15 0 35 93
25 120 -8 21 -10 17 -15 -26z"/>
<path d="M3891 1992 c1 -29 -3 -58 -9 -64 -7 -7 -12 -22 -12 -35 0 -13 -4 -23
-9 -23 -5 0 -11 -11 -13 -24 -4 -17 -1 -23 9 -19 7 3 13 9 13 15 0 5 7 17 16
25 9 10 13 25 10 39 -3 12 -1 24 5 26 14 5 14 87 -1 102 -7 7 -10 -4 -9 -42z"/>
<path d="M3849 1992 c-3 -20 -2 -29 4 -23 5 5 7 19 5 32 -3 20 -5 19 -9 -9z"/>
<path d="M3746 1974 c-10 -37 -2 -39 11 -4 6 17 8 30 3 30 -4 0 -11 -12 -14
-26z"/>
<path d="M2398 1973 c7 -3 16 -2 19 1 4 3 -2 6 -13 5 -11 0 -14 -3 -6 -6z"/>
<path d="M3776 1949 c-8 -40 -3 -47 11 -16 6 13 8 29 3 36 -4 8 -10 1 -14 -20z"/>
<path d="M3730 1914 c0 -11 -4 -24 -9 -29 -12 -14 -22 -61 -14 -69 3 -3 15 17
25 46 12 35 15 55 8 62 -7 7 -10 3 -10 -10z"/>
<path d="M3830 1920 c-1 -8 -2 -21 -1 -27 1 -7 -6 -13 -16 -14 -11 0 -13 -3
-5 -6 6 -2 10 -9 7 -13 -3 -5 -1 -11 5 -15 14 -9 22 17 17 57 -2 18 -5 26 -7
18z"/>
<path d="M3092 1869 c2 -6 8 -10 13 -10 5 0 11 4 13 10 2 6 -4 11 -13 11 -9 0
-15 -5 -13 -11z"/>
<path d="M3095 1778 c-6 -54 4 -118 18 -118 2 0 3 26 1 58 -2 31 1 72 5 90 7
24 6 32 -4 32 -9 0 -16 -20 -20 -62z"/>
<path d="M3810 1799 c0 -11 5 -17 10 -14 6 3 10 13 10 21 0 8 -4 14 -10 14 -5
0 -10 -9 -10 -21z"/>
<path d="M3693 1786 c4 -9 1 -16 -5 -16 -7 0 -7 -4 1 -13 6 -8 8 -17 4 -20 -3
-4 -1 -7 5 -7 7 0 13 5 13 10 4 39 2 54 -10 58 -10 3 -12 0 -8 -12z"/>
<path d="M3155 1610 c3 -5 11 -10 16 -10 6 0 7 5 4 10 -3 6 -11 10 -16 10 -6
0 -7 -4 -4 -10z"/>
<path d="M3153 1496 c-5 -25 -7 -46 -2 -46 9 0 23 63 17 81 -2 7 -9 -9 -15
-35z"/>
<path d="M2670 1510 c0 -5 5 -10 10 -10 6 0 10 5 10 10 0 6 -4 10 -10 10 -5 0
-10 -4 -10 -10z"/>
<path d="M2630 1495 c0 -8 4 -15 10 -15 5 0 7 7 4 15 -4 8 -8 15 -10 15 -2 0
-4 -7 -4 -15z"/>
<path d="M3120 1389 c0 -5 5 -7 10 -4 6 3 10 8 10 11 0 2 -4 4 -10 4 -5 0 -10
-5 -10 -11z"/>
<path d="M3087 1309 c-19 -57 -20 -69 -9 -69 7 0 27 51 39 98 11 45 -14 21
-30 -29z"/>
<path d="M3136 1321 c-4 -7 -5 -15 -2 -18 9 -9 19 4 14 18 -4 11 -6 11 -12 0z"/>
<path d="M3080 1185 c0 -8 4 -15 9 -15 5 0 11 7 15 15 3 9 0 15 -9 15 -8 0
-15 -7 -15 -15z"/>
<path d="M3275 880 c-3 -5 -1 -10 4 -10 6 0 11 5 11 10 0 6 -2 10 -4 10 -3 0
-8 -4 -11 -10z"/>
<path d="M0 435 l0 -435 108 0 c115 0 158 11 168 44 5 14 -1 26 -17 39 -14 11
-25 15 -27 8 -2 -6 -9 -11 -16 -11 -15 0 -56 45 -56 63 0 6 -5 4 -11 -7 -9
-15 -13 -16 -20 -5 -15 23 -11 69 6 69 8 0 15 -5 15 -12 0 -6 2 -9 5 -6 11 10
-8 40 -31 49 -16 6 -24 16 -24 33 0 39 -9 54 -31 49 -15 -4 -19 0 -20 18 0 13
-2 83 -3 154 -1 72 -5 135 -8 141 -4 5 -7 50 -9 99 -2 104 -8 145 -20 145 -5
0 -9 -193 -9 -435z"/>
<path d="M3480 620 c0 -11 5 -20 10 -20 6 0 10 9 10 20 0 11 -4 20 -10 20 -5
0 -10 -9 -10 -20z"/>
<path d="M4670 611 c0 -5 7 -12 16 -15 14 -5 15 -4 4 9 -14 17 -20 19 -20 6z"/>
<path d="M4680 536 c0 -9 5 -16 10 -16 6 0 10 4 10 9 0 6 -4 13 -10 16 -5 3
-10 -1 -10 -9z"/>
<path d="M4640 519 c0 -5 5 -7 10 -4 6 3 10 8 10 11 0 2 -4 4 -10 4 -5 0 -10
-5 -10 -11z"/>
<path d="M4636 492 c-3 -6 1 -13 10 -16 23 -9 28 -2 10 13 -8 7 -17 8 -20 3z"/>
<path d="M4800 429 c0 -11 57 -12 64 -1 3 4 -11 9 -30 9 -19 1 -34 -3 -34 -8z"/>
<path d="M4685 410 c-3 -5 -1 -10 4 -10 6 0 11 5 11 10 0 6 -2 10 -4 10 -3 0
-8 -4 -11 -10z"/>
<path d="M4970 370 c0 -5 7 -10 15 -10 8 0 15 5 15 10 0 6 -7 10 -15 10 -8 0
-15 -4 -15 -10z"/>
<path d="M4790 360 c0 -5 7 -7 15 -4 8 4 15 8 15 10 0 2 -7 4 -15 4 -8 0 -15
-4 -15 -10z"/>
<path d="M4870 341 c0 -25 6 -27 13 -6 4 8 2 17 -3 20 -6 4 -10 -3 -10 -14z"/>
<path d="M4960 315 c0 -8 9 -15 20 -15 24 0 27 15 4 24 -22 9 -24 8 -24 -9z"/>
<path d="M4966 271 c-4 -5 3 -7 14 -4 23 6 26 13 6 13 -8 0 -17 -4 -20 -9z"/>
<path d="M4915 219 c-11 -17 1 -21 15 -4 8 9 8 15 2 15 -6 0 -14 -5 -17 -11z"/>
<path d="M4955 210 c3 -5 13 -10 21 -10 8 0 12 5 9 10 -3 6 -13 10 -21 10 -8
0 -12 -4 -9 -10z"/>
<path d="M4770 186 c0 -2 11 -6 25 -8 14 -3 25 -1 25 3 0 5 -11 9 -25 9 -14 0
-25 -2 -25 -4z"/>
<path d="M4781 160 c-9 -5 -7 -9 8 -13 12 -3 23 -2 26 3 7 11 -19 20 -34 10z"/>
<path d="M4843 155 c-3 -9 -3 -18 -1 -21 3 -3 8 4 11 16 6 23 -1 27 -10 5z"/>
<path d="M4730 155 c0 -5 5 -17 10 -25 5 -8 10 -10 10 -5 0 6 -5 17 -10 25 -5
8 -10 11 -10 5z"/>
<path d="M4910 153 c0 -5 5 -15 10 -23 8 -12 10 -11 10 8 0 12 -4 22 -10 22
-5 0 -10 -3 -10 -7z"/>
<path d="M4766 131 c-3 -4 1 -17 9 -27 14 -18 14 -18 15 9 0 26 -13 36 -24 18z"/>
<path d="M4941 124 c0 -11 3 -14 6 -6 3 7 2 16 -1 19 -3 4 -6 -2 -5 -13z"/>
<path d="M4820 112 c0 -15 -2 -15 -11 -2 -8 11 -9 9 -3 -10 7 -25 21 -40 39
-40 6 0 3 5 -5 10 -12 8 -13 13 -3 29 10 16 9 20 -2 25 -10 3 -15 -1 -15 -12z"/>
<path d="M4868 105 c-11 -15 -14 -25 -7 -32 8 -8 7 -13 0 -17 -17 -11 40 -54
69 -54 24 0 25 4 21 37 -3 32 -5 33 -12 13 -12 -33 -19 -27 -12 13 4 28 2 36
-13 42 -11 3 -21 10 -24 14 -3 4 -13 -3 -22 -16z m44 -37 c-5 -21 -6 -21 -12
-2 -8 21 -3 37 10 29 4 -3 6 -15 2 -27z"/>
<path d="M2690 60 c0 -5 5 -10 10 -10 6 0 10 5 10 10 0 6 -4 10 -10 10 -5 0
-10 -4 -10 -10z"/>
<path d="M302 48 c-17 -17 -15 -48 3 -48 10 0 15 10 15 30 0 34 -1 35 -18 18z"/>
<path d="M4964 47 c3 -10 6 -25 6 -33 0 -8 7 -14 15 -14 8 0 15 9 15 21 0 11
-4 18 -9 14 -6 -3 -15 3 -21 12 -11 17 -11 17 -6 0z"/>
<path d="M2690 21 c0 -12 5 -21 10 -21 6 0 10 6 10 14 0 8 -4 18 -10 21 -5 3
-10 -3 -10 -14z"/>
<path d="M4830 10 c0 -5 5 -10 11 -10 5 0 7 5 4 10 -3 6 -8 10 -11 10 -2 0 -4
-4 -4 -10z"/>
</g>
</svg>
